<?xml version="1.0" encoding="UTF-8"?>
<svg version="1.1" xmlns="http://www.w3.org/2000/svg" width="934" height="515">
<path d="M0 0 C0.63099609 0.30663574 1.26199219 0.61327148 1.91210938 0.92919922 C39.10867015 19.21466449 67.93601686 51.9598104 82.06689453 90.90698242 C96.09553278 132.26083278 93.94260494 177.52792757 75 217 C67.34265178 232.44425677 57.85411438 245.48732371 46 258 C45.10796875 258.95648438 44.2159375 259.91296875 43.296875 260.8984375 C14.6784404 290.97575577 -26.15074588 306.49356203 -67.140625 308.125 C-108.37293963 308.89211283 -149.67463901 294.20470637 -180 266 C-180.60199219 265.44183594 -181.20398438 264.88367188 -181.82421875 264.30859375 C-208.97589122 238.83640617 -227.66272225 204.28932295 -232 167 C-232.16435547 165.78183594 -232.16435547 165.78183594 -232.33203125 164.5390625 C-237.30711762 121.42164731 -224.45842946 78.11556056 -197.59765625 44.23095703 C-186.71789034 30.72338859 -174.44052033 19.58291615 -160 10 C-158.95199219 9.30132812 -157.90398437 8.60265625 -156.82421875 7.8828125 C-110.48761754 -21.77722862 -49.16586974 -24.18725939 0 0 Z " fill="#2FD699" transform="translate(538,112)"/>
<path d="M0 0 C0.00054477 1.01821838 0.00108953 2.03643677 0.00165081 3.08551025 C0.01604863 27.86531149 0.05907528 52.64493711 0.13209057 77.42463684 C0.16673809 89.40794916 0.1920958 101.39114647 0.19555664 113.37451172 C0.19859685 123.81968045 0.21909513 134.26464435 0.26052457 144.70973396 C0.28185089 150.23996284 0.29445693 155.76990054 0.28615379 161.3001709 C0.27861154 166.50743036 0.29444412 171.71409991 0.32806015 176.9212513 C0.33629122 178.83036625 0.33604597 180.7395399 0.32659721 182.64864922 C0.31495059 185.26084245 0.33412975 187.87111023 0.36076355 190.4831543 C0.35009029 191.23415028 0.33941703 191.98514626 0.32842034 192.75889969 C0.43752015 198.51583036 2.3601502 202.54784844 6 207 C10.57728438 210.24233387 14.92368163 210.431596 20.37280273 210.38818359 C21.19148834 210.39344055 22.01017395 210.39869751 22.85366821 210.40411377 C25.54717355 210.41726613 28.24008288 210.40859188 30.93359375 210.3984375 C32.81397108 210.4004598 34.69434764 210.40337254 36.57472229 210.40713501 C40.51123539 210.41155208 44.44754393 210.4051479 48.3840332 210.39111328 C53.41888208 210.37403359 58.45325072 210.38385881 63.48808193 210.40183067 C67.37009773 210.41269524 71.25200057 210.40920971 75.13401985 210.4014473 C76.98988973 210.39945207 78.84577 210.40188068 80.70162773 210.40888596 C83.30062715 210.4165432 85.89886008 210.40483633 88.49780273 210.38818359 C89.6381321 210.39729263 89.6381321 210.39729263 90.80149841 210.40658569 C96.42523348 210.34015615 101.30173928 209.31544112 105.70703125 205.53515625 C109.99978765 199.8165373 111.29929229 196.29974852 111.29052734 189.14550781 C111.29724457 188.35798126 111.30396179 187.57045471 111.31088257 186.75906372 C111.32987028 184.15701981 111.33378751 181.55523387 111.3359375 178.953125 C111.34236623 177.13954564 111.34909465 175.32596732 111.35610962 173.51239014 C111.36808527 169.70940753 111.37179028 165.90651576 111.37060547 162.10351562 C111.37040257 157.24350842 111.39767308 152.38408789 111.43214989 147.52421951 C111.45445255 143.77684892 111.45844194 140.02961857 111.45738602 136.28218842 C111.45973812 134.49132013 111.46853957 132.70044774 111.48405075 130.90964508 C111.50377389 128.39671017 111.49784802 125.88502788 111.48583984 123.37207031 C111.49707886 122.64035614 111.50831787 121.90864197 111.51989746 121.15475464 C111.4549086 115.76926097 110.07127537 111.4629491 107 107 C100.76060025 101.47729775 92.06525202 102.4580738 84.23209572 102.5141449 C81.73033622 102.53152225 79.22972031 102.52383936 76.72795105 102.5098877 C71.42272102 102.48464884 66.11776557 102.4900419 60.8125 102.5 C54.65102669 102.51154016 48.4901133 102.51037436 42.32871056 102.47593689 C39.86838072 102.46885463 37.40894395 102.48549891 34.94868469 102.50305176 C33.43819703 102.49734405 31.92771302 102.49052685 30.41723633 102.48242188 C28.44488762 102.48719543 28.44488762 102.48719543 26.43269348 102.49206543 C22.44973606 101.92112146 20.83434339 100.79227942 18 98 C14.60922836 93.12961892 15.41133528 86.64837812 16 81 C17.25024527 77.75643917 18.81672178 75.59163911 22 74 C24.78455146 73.88584702 27.54465796 73.83214675 30.33007812 73.82299805 C31.1921286 73.81642685 32.05417908 73.80985565 32.94235229 73.80308533 C35.80531905 73.78332123 38.66823312 73.77167911 41.53125 73.76171875 C42.99917244 73.75560546 42.99917244 73.75560546 44.49674988 73.74936867 C49.68240143 73.7284887 54.86802641 73.71419872 60.05371094 73.70483398 C65.39555736 73.69380171 70.73698351 73.65944417 76.07868195 73.61966228 C80.19670349 73.5934293 84.31462626 73.58513592 88.432724 73.58155251 C90.40057697 73.57669909 92.3684259 73.56512085 94.3361969 73.54651451 C108.04216128 73.42503619 119.5994089 73.93563491 130 84 C137.29578637 92.79885347 140.6126032 102.32070255 140.53344727 113.65942383 C140.54206284 114.67388077 140.55067841 115.68833771 140.55955505 116.73353577 C140.58209658 120.05830033 140.57549639 123.38221367 140.56640625 126.70703125 C140.57164787 129.0381444 140.57792631 131.36925543 140.58518982 133.70036316 C140.59557296 138.57646696 140.59106356 143.45227856 140.57641602 148.32836914 C140.55925155 154.54870988 140.58270681 160.76812484 140.61790562 166.98836231 C140.63996676 171.80053217 140.63841668 176.61248362 140.6301403 181.42468834 C140.62932518 183.71660056 140.63610373 186.00852953 140.65091133 188.30039406 C140.73864668 204.3391838 140.43561533 217.65252883 128.609375 229.8359375 C121.98881414 235.32664217 114.061792 239.10067578 105.40351868 239.14717102 C104.48546951 239.15432632 103.56742035 239.16148163 102.62155151 239.16885376 C101.62149078 239.17154266 100.62143005 239.17423157 99.59106445 239.17700195 C98.53204422 239.18357315 97.47302399 239.19014435 96.38191223 239.19691467 C92.87570117 239.21663172 89.36953292 239.2283071 85.86328125 239.23828125 C84.66460104 239.24235678 83.46592083 239.2464323 82.23091698 239.25063133 C75.88579862 239.27148577 69.54070185 239.28578995 63.19555664 239.29516602 C56.64974787 239.30622604 50.10427943 239.34062357 43.55859089 239.38033772 C38.51844155 239.40651258 33.47837318 239.41485868 28.43816185 239.41844749 C26.02570486 239.42331154 23.61325144 239.43492023 21.20086098 239.45348549 C17.81893754 239.47789329 14.43789319 239.47690835 11.0559082 239.4699707 C9.57099884 239.48918579 9.57099884 239.48918579 8.05609131 239.50878906 C-1.67480979 239.43630103 -9.90735443 235.83453877 -17.00390625 229.09765625 C-21.98947925 223.87336337 -24.81061445 218.85265309 -27 212 C-27.33 211.01 -27.66 210.02 -28 209 C-28.11479673 206.40466725 -28.17401312 203.8348529 -28.18754578 201.23869324 C-28.19545586 200.43998709 -28.20336594 199.64128095 -28.21151572 198.81837159 C-28.23664482 196.13308321 -28.25451163 193.44779807 -28.2722168 190.76245117 C-28.28830013 188.8407314 -28.30467993 186.91901409 -28.32133484 184.99729919 C-28.46589116 167.46485932 -28.54105184 149.93171208 -28.60025311 132.39879894 C-28.64487092 119.43477319 -28.72209782 106.4718017 -28.84183758 93.50824755 C-28.92317126 84.39651075 -28.96637856 75.28506355 -28.98155528 66.17297918 C-28.99173331 60.72843902 -29.01912223 55.28522752 -29.08786583 49.84108543 C-29.15182449 44.71965343 -29.16868893 39.60022301 -29.14937019 34.47844887 C-29.15052501 32.59901937 -29.16881934 30.71951046 -29.205513 28.84043884 C-29.46860087 14.63482264 -29.46860087 14.63482264 -25.84243202 10.59823036 C-23.25563932 9.01000492 -20.8677621 7.97120172 -18 7 C-16.60673045 6.31252141 -15.22046095 5.61029728 -13.84765625 4.8828125 C-12.58858163 4.29121462 -11.32690303 3.70512235 -10.0625 3.125 C-9.41732422 2.81820312 -8.77214844 2.51140625 -8.10742188 2.1953125 C-5.2206584 0.8551363 -3.22161004 0 0 0 Z " fill="#F1F2F2" transform="translate(411,106)"/>
  <path d="M0 0 C3.49406769 1.66762322 4.82670681 2.74006022 7 6 C7.73446576 10.56051995 7.59262059 14.01911074 5.1875 18 C2.33756556 20.60565434 0.45051314 20.95828582 -3.375 21.3125 C-7.59334314 20.94884973 -9.04884992 19.95115008 -12 17 C-13.73631636 13.52736727 -13.60190402 9.78806987 -13 6 C-9.04831125 1.00839315 -6.3017294 -0.49425329 0 0 Z" fill="#EDF2F0" transform="translate(498,227)">
    <animateTransform attributeName="transform" type="translate" values="498,227;498,232;498,227" dur="3s" repeatCount="indefinite"/>
    <animateTransform attributeName="transform" type="scale" values="1;1.1;1" dur="3s" additive="sum" repeatCount="indefinite"/>
  </path>

  <path d="M0 0 C2.8100346 1.79363911 4.50940468 3.01880935 6 6 C6.42950108 14.87635575 6.42950108 14.87635575 4 18 C1.32378584 20.0814999 -0.59124389 20.93042449 -3.9375 21.5 C-8.25011712 20.79589925 -9.88856971 19.03907145 -13 16 C-14.60086627 12.79826746 -14.49917089 9.47422941 -14 6 C-10.32759145 0.24655994 -6.71744997 -0.96515086 0 0 Z" fill="#EEF2F0" transform="translate(499,279)">
    <animateTransform attributeName="transform" type="translate" values="499,279;499,284;499,279" dur="3s" begin="0.2s" repeatCount="indefinite"/>
    <animateTransform attributeName="transform" type="scale" values="1;1.1;1" dur="3s" begin="0.2s" additive="sum" repeatCount="indefinite"/>
  </path>

  <path d="M0 0 C5.57894737 3.15789474 5.57894737 3.15789474 7 6 C7.52893101 10.41353907 7.49914819 13.95829942 5.5625 18 C1.90799821 20.85229408 -1.4200987 21.28624383 -6 21 C-8.95478038 19.80551431 -10.37655368 18.80157384 -12.3125 16.3125 C-13.34754666 12.83097941 -13.71228432 9.5543693 -13 6 C-9.02999967 1.08973643 -6.29462787 -0.60525268 0 0 Z" fill="#EEF2F0" transform="translate(471,227)">
    <animateTransform attributeName="transform" type="translate" values="471,227;471,232;471,227" dur="3s" begin="0.4s" repeatCount="indefinite"/>
    <animateTransform attributeName="transform" type="scale" values="1;1.1;1" dur="3s" begin="0.4s" additive="sum" repeatCount="indefinite"/>
  </path>

  <path d="M0 0 C3.125 1.9375 3.125 1.9375 5 5 C5.93971476 9.68164203 5.66873692 12.93002092 3.125 17 C-0.14840013 20.08084718 -2.46126475 20.33387487 -6.9609375 20.29296875 C-10.13134567 19.83745033 -11.8192402 18.24684343 -14 16 C-15.62356291 12.75287417 -15.54582678 9.50888646 -15 6 C-11.48421671 -0.56279548 -7.18818911 -1.53190915 0 0 Z" fill="#EFF2F1" transform="translate(473,280)">
    <animateTransform attributeName="transform" type="translate" values="473,280;473,285;473,280" dur="3s" begin="0.6s" repeatCount="indefinite"/>
    <animateTransform attributeName="transform" type="scale" values="1;1.1;1" dur="3s" begin="0.6s" additive="sum" repeatCount="indefinite"/>
  </path>

  <path d="M0 0 C3.37495058 0.02428022 5.14420406 0.59958588 7.75 2.75 C10.48324942 5.54991404 11.19379054 6.33035679 11.625 10.125 C11.23003151 14.23267229 9.9067368 16.20426614 7.3125 19.375 C4.10842697 21.72465355 1.20975235 21.92061533 -2.6875 21.375 C-5.61233867 19.54952064 -8.12179205 17.50641589 -9.6875 14.375 C-10.19448467 9.22065588 -10.19448467 9.22065588 -9.6875 6.375 C-7.25 3.4375 -7.25 3.4375 -4.6875 1.375 C-3.6875 0.375 -3.6875 0.375 0 0 Z" fill="#ECF1EF" transform="translate(440.6875,278.625)">
    <animateTransform attributeName="transform" type="translate" values="440.6875,278.625;440.6875,283.625;440.6875,278.625" dur="3s" begin="0.8s" repeatCount="indefinite"/>
    <animateTransform attributeName="transform" type="scale" values="1;1.1;1" dur="3s" begin="0.8s" additive="sum" repeatCount="indefinite"/>
  </path>

  <path d="M0 0 C3.0413374 1.63764322 5.28615407 3.09993339 7.4375 5.8125 C8.30204969 9.17463767 7.82327073 11.64811202 7 15 C4.81383809 18.35211493 3.81940188 19.72686604 0 21 C-3.375 21.375 -3.375 21.375 -7 21 C-10.84554163 17.82324822 -12.80224739 15.71385593 -13.375 10.75 C-12.88072704 5.80727042 -11.46171699 4.46171699 -8 1 C-5.13391871 -0.43304064 -3.18699217 -0.30644155 0 0 Z" fill="#EDF2F0" transform="translate(444,227)">
    <animateTransform attributeName="transform" type="translate" values="444,227;444,232;444,227" dur="3s" begin="1s" repeatCount="indefinite"/>
    <animateTransform attributeName="transform" type="scale" values="1;1.1;1" dur="3s" begin="1s" additive="sum" repeatCount="indefinite"/>
  </path>
</svg>
